<svg version="1.1" viewBox="0.0 0.0 960.0 720.0" fill="none" stroke="none" stroke-linecap="square" stroke-miterlimit="10" xmlns:xlink="http://www.w3.org/1999/xlink" xmlns="http://www.w3.org/2000/svg"><clipPath id="p.0"><path d="m0 0l960.0 0l0 720.0l-960.0 0l0 -720.0z" clip-rule="nonzero"/></clipPath><g clip-path="url(#p.0)"><path fill="#000000" fill-opacity="0.0" d="m0 0l960.0 0l0 720.0l-960.0 0z" fill-rule="evenodd"/><path fill="#cfe2f3" d="m240.65092 81.92913l63.354294 31.67717l0 76.803154l-63.354294 31.677155l-63.35431 -31.677155l0 -76.803154z" fill-rule="evenodd"/><path stroke="#000000" stroke-width="1.0" stroke-linejoin="round" stroke-linecap="butt" d="m240.65092 81.92913l63.354294 31.67717l0 76.803154l-63.354294 31.677155l-63.35431 -31.677155l0 -76.803154z" fill-rule="evenodd"/><path fill="#cfe2f3" d="m310.41208 197.7664l63.35431 31.67717l0 76.80313l-63.35431 31.677185l-63.35431 -31.677185l0 -76.80313z" fill-rule="evenodd"/><path stroke="#000000" stroke-width="1.0" stroke-linejoin="round" stroke-linecap="butt" d="m310.41208 197.7664l63.35431 31.67717l0 76.80313l-63.35431 31.677185l-63.35431 -31.677185l0 -76.80313z" fill-rule="evenodd"/><path fill="#cfe2f3" d="m381.43958 80.00913l63.35431 31.67717l0 76.803154l-63.35431 31.677155l-63.35431 -31.677155l0 -76.803154z" fill-rule="evenodd"/><path stroke="#000000" stroke-width="1.0" stroke-linejoin="round" stroke-linecap="butt" d="m381.43958 80.00913l63.35431 31.67717l0 76.803154l-63.35431 31.677155l-63.35431 -31.677155l0 -76.803154z" fill-rule="evenodd"/><path fill="#cfe2f3" d="m446.08923 197.7664l63.35431 31.67717l0 76.80313l-63.35431 31.677185l-63.35431 -31.677185l0 -76.80313z" fill-rule="evenodd"/><path stroke="#000000" stroke-width="1.0" stroke-linejoin="round" stroke-linecap="butt" d="m446.08923 197.7664l63.35431 31.67717l0 76.80313l-63.35431 31.677185l-63.35431 -31.677185l0 -76.80313z" fill-rule="evenodd"/><path fill="#cfe2f3" d="m379.5183 314.88977l63.35431 31.677155l0 76.80316l-63.35431 31.677155l-63.35428 -31.677155l0 -76.80316z" fill-rule="evenodd"/><path stroke="#000000" stroke-width="1.0" stroke-linejoin="round" stroke-linecap="butt" d="m379.5183 314.88977l63.35431 31.677155l0 76.80316l-63.35431 31.677155l-63.35428 -31.677155l0 -76.80316z" fill-rule="evenodd"/><path fill="#cfe2f3" d="m516.4657 312.96976l63.35431 31.677185l0 76.80313l-63.35431 31.677185l-63.35428 -31.677185l0 -76.80313z" fill-rule="evenodd"/><path stroke="#000000" stroke-width="1.0" stroke-linejoin="round" stroke-linecap="butt" d="m516.4657 312.96976l63.35431 31.677185l0 76.80313l-63.35431 31.677185l-63.35428 -31.677185l0 -76.80313z" fill-rule="evenodd"/><path fill="#cfe2f3" d="m717.44354 195.84514l63.35431 31.67717l0 76.80316l-63.35431 31.677155l-63.354248 -31.677155l0 -76.80316z" fill-rule="evenodd"/><path stroke="#000000" stroke-width="1.0" stroke-linejoin="round" stroke-linecap="butt" d="m717.44354 195.84514l63.35431 31.67717l0 76.80316l-63.35431 31.677155l-63.354248 -31.677155l0 -76.80316z" fill-rule="evenodd"/><path fill="#cfe2f3" d="m581.7664 195.8464l63.35431 31.67717l0 76.80315l-63.35431 31.677155l-63.35431 -31.677155l0 -76.80315z" fill-rule="evenodd"/><path stroke="#000000" stroke-width="1.0" stroke-linejoin="round" stroke-linecap="butt" d="m581.7664 195.8464l63.35431 31.67717l0 76.80315l-63.35431 31.677155l-63.35431 -31.677155l0 -76.80315z" fill-rule="evenodd"/><path fill="#cfe2f3" d="m651.49207 312.00912l63.35431 31.677185l0 76.80313l-63.35431 31.677185l-63.35431 -31.677185l0 -76.80313z" fill-rule="evenodd"/><path stroke="#000000" stroke-width="1.0" stroke-linejoin="round" stroke-linecap="butt" d="m651.49207 312.00912l63.35431 31.677185l0 76.80313l-63.35431 31.677185l-63.35431 -31.677185l0 -76.80313z" fill-rule="evenodd"/><path fill="#cfe2f3" d="m651.5276 80.00787l63.354248 31.677162l0 76.803154l-63.354248 31.67717l-63.35431 -31.67717l0 -76.803154z" fill-rule="evenodd"/><path stroke="#000000" stroke-width="1.0" stroke-linejoin="round" stroke-linecap="butt" d="m651.5276 80.00787l63.354248 31.677162l0 76.803154l-63.354248 31.67717l-63.35431 -31.67717l0 -76.803154z" fill-rule="evenodd"/><path fill="#cfe2f3" d="m786.5171 312.00787l63.354248 31.677155l0 76.80316l-63.354248 31.677155l-63.35431 -31.677155l0 -76.80316z" fill-rule="evenodd"/><path stroke="#000000" stroke-width="1.0" stroke-linejoin="round" stroke-linecap="butt" d="m786.5171 312.00787l63.354248 31.677155l0 76.80316l-63.354248 31.677155l-63.35431 -31.677155l0 -76.80316z" fill-rule="evenodd"/><path fill="#cfe2f3" d="m719.3636 430.08786l63.35431 31.677185l0 76.80313l-63.35431 31.677185l-63.35431 -31.677185l0 -76.80313z" fill-rule="evenodd"/><path stroke="#000000" stroke-width="1.0" stroke-linejoin="round" stroke-linecap="butt" d="m719.3636 430.08786l63.35431 31.677185l0 76.80313l-63.35431 31.677185l-63.35431 -31.677185l0 -76.80313z" fill-rule="evenodd"/><path fill="#000000" fill-opacity="0.0" d="m173.45659 129.37796l740.4724 0l0 46.866135l-740.4724 0z" fill-rule="evenodd"/><path fill="#000000" d="m189.95659 143.9192l3.265625 0l0 10.265625q0 2.015625 -0.359375 3.09375q-0.46875 1.421875 -1.71875 2.28125q-1.25 0.859375 -3.296875 0.859375q-2.40625 0 -3.703125 -1.34375q-1.296875 -1.34375 -1.296875 -3.953125l3.078125 -0.34375q0.0625 1.390625 0.421875 1.96875q0.515625 0.875 1.609375 0.875q1.09375 0 1.546875 -0.625q0.453125 -0.625 0.453125 -2.59375l0 -10.484375zm9.053452 8.046875l-2.828125 -0.5q0.484375 -1.703125 1.640625 -2.515625q1.15625 -0.828125 3.453125 -0.828125q2.078125 0 3.09375 0.5q1.015625 0.484375 1.421875 1.25q0.421875 0.75 0.421875 2.78125l-0.03125 3.625q0 1.546875 0.140625 2.28125q0.15625 0.734375 0.578125 1.578125l-3.078125 0q-0.125 -0.3125 -0.296875 -0.921875q-0.078125 -0.265625 -0.109375 -0.359375q-0.796875 0.765625 -1.71875 1.15625q-0.90625 0.390625 -1.921875 0.390625q-1.828125 0 -2.875 -0.984375q-1.03125 -0.984375 -1.03125 -2.484375q0 -1.0 0.46875 -1.78125q0.484375 -0.78125 1.328125 -1.1875q0.859375 -0.421875 2.484375 -0.734375q2.171875 -0.40625 3.015625 -0.765625l0 -0.296875q0 -0.90625 -0.453125 -1.28125q-0.4375 -0.390625 -1.65625 -0.390625q-0.828125 0 -1.296875 0.328125q-0.46875 0.328125 -0.75 1.140625zm4.15625 2.53125q-0.59375 0.203125 -1.890625 0.484375q-1.296875 0.265625 -1.6875 0.53125q-0.609375 0.4375 -0.609375 1.09375q0 0.65625 0.484375 1.140625q0.484375 0.46875 1.234375 0.46875q0.84375 0 1.609375 -0.5625q0.5625 -0.40625 0.734375 -1.015625q0.125 -0.40625 0.125 -1.515625l0 -0.625zm9.350327 5.640625l-4.734375 -11.75l3.265625 0l2.203125 6.0l0.640625 2.0q0.265625 -0.765625 0.328125 -1.0q0.15625 -0.5 0.328125 -1.0l2.234375 -6.0l3.203125 0l-4.671875 11.75l-2.796875 0zm11.694077 -8.171875l-2.828125 -0.5q0.484375 -1.703125 1.640625 -2.515625q1.15625 -0.828125 3.453125 -0.828125q2.078125 0 3.09375 0.5q1.015625 0.484375 1.421875 1.25q0.421875 0.75 0.421875 2.78125l-0.03125 3.625q0 1.546875 0.140625 2.28125q0.15625 0.734375 0.578125 1.578125l-3.078125 0q-0.125 -0.3125 -0.296875 -0.921875q-0.078125 -0.265625 -0.109375 -0.359375q-0.796875 0.765625 -1.71875 1.15625q-0.90625 0.390625 -1.921875 0.390625q-1.828125 0 -2.875 -0.984375q-1.03125 -0.984375 -1.03125 -2.484375q0 -1.0 0.46875 -1.78125q0.484375 -0.78125 1.328125 -1.1875q0.859375 -0.421875 2.484375 -0.734375q2.171875 -0.40625 3.015625 -0.765625l0 -0.296875q0 -0.90625 -0.453125 -1.28125q-0.4375 -0.390625 -1.65625 -0.390625q-0.828125 0 -1.296875 0.328125q-0.46875 0.328125 -0.75 1.140625zm4.15625 2.53125q-0.59375 0.203125 -1.890625 0.484375q-1.296875 0.265625 -1.6875 0.53125q-0.609375 0.4375 -0.609375 1.09375q0 0.65625 0.484375 1.140625q0.484375 0.46875 1.234375 0.46875q0.84375 0 1.609375 -0.5625q0.5625 -0.40625 0.734375 -1.015625q0.125 -0.40625 0.125 -1.515625l0 -0.625zm5.3034515 0.359375l3.1875 -0.3125q0.296875 1.609375 1.171875 2.359375q0.875 0.75 2.375 0.75q1.578125 0 2.375 -0.65625q0.8125 -0.671875 0.8125 -1.578125q0 -0.5625 -0.34375 -0.96875q-0.328125 -0.40625 -1.171875 -0.703125q-0.578125 -0.203125 -2.625 -0.71875q-2.640625 -0.640625 -3.703125 -1.59375q-1.484375 -1.34375 -1.484375 -3.265625q0 -1.234375 0.703125 -2.3125q0.703125 -1.078125 2.015625 -1.640625q1.328125 -0.578125 3.203125 -0.578125q3.046875 0 4.59375 1.34375q1.546875 1.34375 1.625 3.578125l-3.28125 0.140625q-0.203125 -1.25 -0.90625 -1.796875q-0.6875 -0.546875 -2.0625 -0.546875q-1.4375 0 -2.234375 0.578125q-0.53125 0.375 -0.53125 1.015625q0 0.578125 0.484375 0.984375q0.625 0.515625 3.015625 1.078125q2.390625 0.5625 3.53125 1.171875q1.15625 0.59375 1.796875 1.640625q0.640625 1.046875 0.640625 2.59375q0 1.390625 -0.78125 2.609375q-0.765625 1.21875 -2.1875 1.8125q-1.40625 0.578125 -3.515625 0.578125q-3.078125 0 -4.734375 -1.421875q-1.640625 -1.421875 -1.96875 -4.140625zm26.174026 -3.0l-3.0625 0.5625q-0.15625 -0.921875 -0.703125 -1.375q-0.54685974 -0.46875 -1.4218597 -0.46875q-1.171875 0 -1.859375 0.796875q-0.6875 0.796875 -0.6875 2.6875q0 2.078125 0.703125 2.953125q0.703125 0.859375 1.875 0.859375q0.890625 0 1.4531097 -0.5q0.5625 -0.515625 0.796875 -1.734375l3.0625 0.515625q-0.484375 2.109375 -1.84375 3.1875q-1.34375 1.0625 -3.6093597 1.0625q-2.578125 0 -4.109375 -1.625q-1.53125 -1.625 -1.53125 -4.5q0 -2.90625 1.53125 -4.53125q1.546875 -1.625 4.171875 -1.625q2.1406097 0 3.4062347 0.921875q1.265625 0.921875 1.828125 2.8125zm5.334717 8.28125l-3.109375 0l0 -11.75l2.875 0l0 1.671875q0.75 -1.1875 1.34375 -1.5625q0.59375 -0.375 1.34375 -0.375q1.0625 0 2.046875 0.59375l-0.96875 2.703125q-0.78125 -0.5 -1.453125 -0.5q-0.65625 0 -1.109375 0.359375q-0.453125 0.359375 -0.71875 1.296875q-0.25 0.9375 -0.25 3.9375l0 3.625zm5.8325195 -13.34375l0 -2.875l3.109375 0l0 2.875l-3.109375 0zm0 13.34375l0 -11.75l3.109375 0l0 11.75l-3.109375 0zm6.200897 -11.75l2.90625 0l0 1.734375q0.5625 -0.890625 1.515625 -1.4375q0.96875 -0.5625 2.140625 -0.5625q2.046875 0 3.46875 1.609375q1.4375 1.59375 1.4375 4.46875q0 2.9375 -1.4375 4.578125q-1.4375 1.625 -3.484375 1.625q-0.96875 0 -1.765625 -0.390625q-0.796875 -0.390625 -1.671875 -1.328125l0 5.921875l-3.109375 0l0 -16.21875zm3.078125 5.671875q0 1.984375 0.78125 2.9375q0.796875 0.9375 1.921875 0.9375q1.078125 0 1.796875 -0.859375q0.71875 -0.875 0.71875 -2.859375q0 -1.84375 -0.734375 -2.734375q-0.734375 -0.90625 -1.84375 -0.90625q-1.125 0 -1.890625 0.890625q-0.75 0.875 -0.75 2.59375zm16.245575 -5.671875l0 2.484375l-2.125 0l0 4.734375q0 1.4375 0.0625 1.671875q0.0625 0.234375 0.265625 0.390625q0.21875 0.15625 0.53125 0.15625q0.4375 0 1.25 -0.296875l0.265625 2.40625q-1.078125 0.46875 -2.453125 0.46875q-0.84375 0 -1.515625 -0.28125q-0.671875 -0.28125 -1.0 -0.71875q-0.3125 -0.453125 -0.421875 -1.21875q-0.109375 -0.546875 -0.109375 -2.203125l0 -5.109375l-1.421875 0l0 -2.484375l1.421875 0l0 -2.328125l3.125 -1.8125l0 4.140625l2.125 0z" fill-rule="nonzero"/><path fill="#000000" fill-opacity="0.0" d="m330.88715 128.5748l101.102356 0l0 46.86615l-101.102356 0z" fill-rule="evenodd"/><path fill="#000000" d="m341.57465 159.33481l0 -16.21875l3.1875 0l6.625 10.828125l0 -10.828125l3.046875 0l0 16.21875l-3.28125 0l-6.546875 -10.578125l0 10.578125l-3.03125 0zm15.580353 -6.046875q0 -1.546875 0.765625 -2.984375q0.765625 -1.453125 2.15625 -2.21875q1.40625 -0.765625 3.125 -0.765625q2.671875 0 4.375 1.734375q1.703125 1.734375 1.703125 4.375q0 2.671875 -1.71875 4.421875q-1.71875 1.75 -4.328125 1.75q-1.625 0 -3.09375 -0.71875q-1.453125 -0.734375 -2.21875 -2.140625q-0.765625 -1.421875 -0.765625 -3.453125zm3.1875 0.171875q0 1.75 0.828125 2.6875q0.828125 0.921875 2.046875 0.921875q1.21875 0 2.03125 -0.921875q0.828125 -0.9375 0.828125 -2.703125q0 -1.734375 -0.828125 -2.65625q-0.8125 -0.9375 -2.03125 -0.9375q-1.21875 0 -2.046875 0.9375q-0.828125 0.921875 -0.828125 2.671875zm22.151855 5.875l-2.890625 0l0 -1.71875q-0.71875 1.0 -1.703125 1.5q-0.96875 0.484375 -1.96875 0.484375q-2.03125 0 -3.484375 -1.625q-1.4375 -1.640625 -1.4375 -4.5625q0 -2.984375 1.40625 -4.53125q1.40625 -1.5625 3.5625 -1.5625q1.96875 0 3.40625 1.640625l0 -5.84375l3.109375 0l0 16.21875zm-8.296875 -6.125q0 1.875 0.515625 2.71875q0.75 1.21875 2.09375 1.21875q1.078125 0 1.828125 -0.90625q0.75 -0.921875 0.75 -2.734375q0 -2.03125 -0.734375 -2.921875q-0.71875 -0.890625 -1.859375 -0.890625q-1.109375 0 -1.859375 0.890625q-0.734375 0.875 -0.734375 2.625zm18.16745 2.390625l3.09375 0.515625q-0.59375 1.703125 -1.890625 2.59375q-1.28125 0.890625 -3.21875 0.890625q-3.0625 0 -4.546875 -2.0q-1.15625 -1.609375 -1.15625 -4.046875q0 -2.921875 1.515625 -4.578125q1.53125 -1.65625 3.875 -1.65625q2.625 0 4.140625 1.734375q1.515625 1.734375 1.4375 5.296875l-7.78125 0q0.03125 1.390625 0.75 2.15625q0.71875 0.765625 1.796875 0.765625q0.71875 0 1.21875 -0.390625q0.5 -0.40625 0.765625 -1.28125zm0.171875 -3.140625q-0.03125 -1.359375 -0.703125 -2.0625q-0.65625 -0.703125 -1.609375 -0.703125q-1.015625 0 -1.6875 0.75q-0.65625 0.734375 -0.65625 2.015625l4.65625 0zm5.615967 6.875l0 -3.109375l3.109375 0l0 3.109375l-3.109375 0zm6.2321167 -13.34375l0 -2.875l3.109375 0l0 2.875l-3.109375 0zm3.109375 1.59375l0 11.390625q0 2.234375 -0.296875 3.15625q-0.296875 0.9375 -1.140625 1.453125q-0.828125 0.515625 -2.109375 0.515625q-0.46875 0 -1.015625 -0.078125q-0.53125 -0.078125 -1.15625 -0.25l0.546875 -2.65625q0.21875 0.046875 0.421875 0.0625q0.1875 0.03125 0.359375 0.03125q0.46875 0 0.765625 -0.203125q0.3125 -0.203125 0.40625 -0.5q0.109375 -0.28125 0.109375 -1.71875l0 -11.203125l3.109375 0zm2.1540222 8.390625l3.125 -0.46875q0.1875 0.90625 0.796875 1.375q0.609375 0.46875 1.703125 0.46875q1.21875 0 1.8125 -0.4375q0.421875 -0.3125 0.421875 -0.828125q0 -0.359375 -0.21875 -0.59375q-0.234375 -0.21875 -1.046875 -0.40625q-3.765625 -0.828125 -4.765625 -1.515625q-1.390625 -0.953125 -1.390625 -2.640625q0 -1.53125 1.203125 -2.5625q1.203125 -1.046875 3.734375 -1.046875q2.40625 0 3.578125 0.796875q1.1875 0.78125 1.625 2.3125l-2.9375 0.546875q-0.1875 -0.6875 -0.71875 -1.046875q-0.515625 -0.375 -1.484375 -0.375q-1.234375 0 -1.765625 0.34375q-0.359375 0.25 -0.359375 0.625q0 0.34375 0.3125 0.578125q0.421875 0.296875 2.90625 0.875q2.484375 0.5625 3.46875 1.375q0.96875 0.828125 0.96875 2.3125q0 1.609375 -1.34375 2.78125q-1.34375 1.15625 -4.0 1.15625q-2.390625 0 -3.796875 -0.96875q-1.390625 -0.984375 -1.828125 -2.65625z" fill-rule="nonzero"/><path fill="#000000" fill-opacity="0.0" d="m-13.744147 243.44882l648.31494 0l0 50.078735l-648.31494 0z" fill-rule="evenodd"/><path fill="#000000" d="m277.1064 276.76883l0 -18.125l3.65625 0l0 7.125l7.171875 0l0 -7.125l3.65625 0l0 18.125l-3.65625 0l0 -7.921875l-7.171875 0l0 7.921875l-3.65625 0zm22.353668 0l0 -15.0625l-5.375 0l0 -3.0625l14.40625 0l0 3.0625l-5.375 0l0 15.0625l-3.65625 0zm11.346436 0l0 -18.125l5.46875 0l3.296875 12.359375l3.25 -12.359375l5.5 0l0 18.125l-3.40625 0l0 -14.265625l-3.59375 14.265625l-3.53125 0l-3.59375 -14.265625l0 14.265625l-3.390625 0zm21.239136 0l0 -17.984375l3.671875 0l0 14.921875l9.09375 0l0 3.0625l-12.765625 0z" fill-rule="nonzero"/><path fill="#000000" fill-opacity="0.0" d="m342.08398 353.958l588.7874 0l0 58.173218l-588.7874 0z" fill-rule="evenodd"/><path fill="#000000" d="m367.8496 381.9905l-4.328125 0.78125q-0.21875 -1.296875 -1.0 -1.953125q-0.765625 -0.65625 -2.0 -0.65625q-1.640625 0 -2.625 1.140625q-0.96875 1.125 -0.96875 3.78125q0 2.953125 0.984375 4.171875q1.0 1.21875 2.671875 1.21875q1.25 0 2.046875 -0.703125q0.796875 -0.71875 1.125 -2.453125l4.3125 0.734375q-0.671875 2.96875 -2.578125 4.484375q-1.90625 1.515625 -5.109375 1.515625q-3.640625 0 -5.8125 -2.296875q-2.15625 -2.296875 -2.15625 -6.359375q0 -4.109375 2.171875 -6.390625q2.171875 -2.296875 5.875 -2.296875q3.03125 0 4.8125 1.3125q1.796875 1.296875 2.578125 3.96875zm1.78125 6.953125l4.40625 -0.671875q0.28125 1.28125 1.140625 1.953125q0.859375 0.65625 2.40625 0.65625q1.703125 0 2.5625 -0.625q0.578125 -0.4375 0.578125 -1.171875q0 -0.5 -0.3125 -0.828125q-0.328125 -0.3125 -1.46875 -0.578125q-5.3125 -1.171875 -6.734375 -2.140625q-1.96875 -1.34375 -1.96875 -3.734375q0 -2.15625 1.703125 -3.625q1.703125 -1.46875 5.28125 -1.46875q3.40625 0 5.0625 1.109375q1.65625 1.109375 2.28125 3.28125l-4.140625 0.765625q-0.265625 -0.96875 -1.015625 -1.484375q-0.734375 -0.515625 -2.109375 -0.515625q-1.734375 0 -2.484375 0.484375q-0.5 0.34375 -0.5 0.890625q0 0.46875 0.4375 0.796875q0.59375 0.4375 4.09375 1.234375q3.515625 0.796875 4.90625 1.953125q1.375 1.171875 1.375 3.265625q0 2.28125 -1.90625 3.921875q-1.90625 1.640625 -5.640625 1.640625q-3.390625 0 -5.375 -1.375q-1.96875 -1.375 -2.578125 -3.734375zm17.796875 0l4.40625 -0.671875q0.28125 1.28125 1.140625 1.953125q0.859375 0.65625 2.40625 0.65625q1.703125 0 2.5625 -0.625q0.578125 -0.4375 0.578125 -1.171875q0 -0.5 -0.3125 -0.828125q-0.328125 -0.3125 -1.46875 -0.578125q-5.3125 -1.171875 -6.734375 -2.140625q-1.96875 -1.34375 -1.96875 -3.734375q0 -2.15625 1.703125 -3.625q1.703125 -1.46875 5.28125 -1.46875q3.40625 0 5.0625 1.109375q1.65625 1.109375 2.28125 3.28125l-4.140625 0.765625q-0.265625 -0.96875 -1.015625 -1.484375q-0.734375 -0.515625 -2.109375 -0.515625q-1.734375 0 -2.484375 0.484375q-0.5 0.34375 -0.5 0.890625q0 0.46875 0.4375 0.796875q0.59375 0.4375 4.09375 1.234375q3.515625 0.796875 4.90625 1.953125q1.375 1.171875 1.375 3.265625q0 2.28125 -1.90625 3.921875q-1.90625 1.640625 -5.640625 1.640625q-3.390625 0 -5.375 -1.375q-1.96875 -1.375 -2.578125 -3.734375z" fill-rule="nonzero"/><path fill="#000000" fill-opacity="0.0" d="m385.91748 244.89764l619.5276 0l0 45.259827l-619.5276 0z" fill-rule="evenodd"/><path fill="#000000" d="m396.4331 274.37762l0 -15.265625l4.609375 0l2.765625 10.40625l2.734375 -10.40625l4.625 0l0 15.265625l-2.859375 0l0 -12.015625l-3.03125 12.015625l-2.96875 0l-3.015625 -12.015625l0 12.015625l-2.859375 0zm17.11023 -5.6875q0 -1.453125 0.71875 -2.8125q0.71875 -1.375 2.03125 -2.09375q1.3125 -0.71875 2.9375 -0.71875q2.515625 0 4.109375 1.640625q1.609375 1.625 1.609375 4.109375q0 2.515625 -1.625 4.171875q-1.609375 1.640625 -4.0625 1.640625q-1.53125 0 -2.90625 -0.6875q-1.375 -0.6875 -2.09375 -2.015625q-0.71875 -1.328125 -0.71875 -3.234375zm3.0 0.15625q0 1.640625 0.78125 2.515625q0.78125 0.875 1.921875 0.875q1.140625 0 1.921875 -0.875q0.78125 -0.875 0.78125 -2.53125q0 -1.625 -0.78125 -2.5q-0.78125 -0.875 -1.921875 -0.875q-1.140625 0 -1.921875 0.875q-0.78125 0.875 -0.78125 2.515625zm20.762451 5.53125l-2.921875 0l0 -5.640625q0 -1.796875 -0.1875 -2.3125q-0.1875 -0.53125 -0.609375 -0.828125q-0.421875 -0.296875 -1.015625 -0.296875q-0.765625 0 -1.375 0.421875q-0.59375 0.421875 -0.828125 1.109375q-0.21875 0.6875 -0.21875 2.53125l0 5.015625l-2.921875 0l0 -11.0625l2.71875 0l0 1.625q1.4375 -1.875 3.640625 -1.875q0.96875 0 1.765625 0.359375q0.8125 0.34375 1.21875 0.890625q0.40625 0.53125 0.5625 1.21875q0.171875 0.6875 0.171875 1.96875l0 6.875zm2.6999512 0.734375l3.34375 0.40625q0.078125 0.578125 0.375 0.796875q0.421875 0.3125 1.3125 0.3125q1.15625 0 1.71875 -0.34375q0.390625 -0.234375 0.59375 -0.734375q0.125 -0.375 0.125 -1.34375l0 -1.625q-1.3125 1.796875 -3.3125 1.796875q-2.21875 0 -3.53125 -1.890625q-1.015625 -1.484375 -1.015625 -3.703125q0 -2.78125 1.328125 -4.25q1.34375 -1.46875 3.34375 -1.46875q2.046875 0 3.375 1.796875l0 -1.546875l2.734375 0l0 9.921875q0 1.96875 -0.328125 2.9375q-0.3125 0.96875 -0.890625 1.515625q-0.578125 0.546875 -1.5625 0.859375q-0.96875 0.3125 -2.453125 0.3125q-2.8125 0 -4.0 -0.96875q-1.171875 -0.953125 -1.171875 -2.4375q0 -0.140625 0.015625 -0.34375zm2.609375 -6.5q0 1.765625 0.671875 2.59375q0.6875 0.8125 1.6875 0.8125q1.078125 0 1.8125 -0.84375q0.75 -0.84375 0.75 -2.484375q0 -1.71875 -0.71875 -2.546875q-0.703125 -0.84375 -1.78125 -0.84375q-1.0625 0 -1.75 0.828125q-0.671875 0.8125 -0.671875 2.484375zm10.012451 0.078125q0 -1.453125 0.71875 -2.8125q0.71875 -1.375 2.03125 -2.09375q1.3125 -0.71875 2.9375 -0.71875q2.515625 0 4.109375 1.640625q1.609375 1.625 1.609375 4.109375q0 2.515625 -1.625 4.171875q-1.609375 1.640625 -4.0625 1.640625q-1.53125 0 -2.90625 -0.6875q-1.375 -0.6875 -2.09375 -2.015625q-0.71875 -1.328125 -0.71875 -3.234375zm3.0 0.15625q0 1.640625 0.78125 2.515625q0.78125 0.875 1.921875 0.875q1.140625 0 1.921875 -0.875q0.78125 -0.875 0.78125 -2.53125q0 -1.625 -0.78125 -2.5q-0.78125 -0.875 -1.921875 -0.875q-1.140625 0 -1.921875 0.875q-0.78125 0.875 -0.78125 2.515625zm10.715576 -9.734375l5.625 0q1.90625 0 2.90625 0.296875q1.34375 0.390625 2.296875 1.40625q0.96875 1.0 1.46875 2.46875q0.5 1.453125 0.5 3.609375q0 1.875 -0.46875 3.25q-0.578125 1.65625 -1.640625 2.6875q-0.796875 0.78125 -2.15625 1.21875q-1.03125 0.328125 -2.734375 0.328125l-5.796875 0l0 -15.265625zm3.078125 2.578125l0 10.109375l2.296875 0q1.296875 0 1.875 -0.140625q0.75 -0.1875 1.234375 -0.625q0.5 -0.453125 0.8125 -1.484375q0.3125 -1.03125 0.3125 -2.796875q0 -1.765625 -0.3125 -2.703125q-0.3125 -0.953125 -0.875 -1.484375q-0.5625 -0.53125 -1.421875 -0.71875q-0.65625 -0.15625 -2.53125 -0.15625l-1.390625 0zm12.339996 -2.578125l6.109375 0q1.8125 0 2.6875 0.15625q0.890625 0.140625 1.59375 0.625q0.703125 0.484375 1.171875 1.28125q0.46875 0.796875 0.46875 1.78125q0 1.0625 -0.578125 1.96875q-0.578125 0.890625 -1.5625 1.34375q1.390625 0.40625 2.140625 1.390625q0.75 0.96875 0.75 2.296875q0 1.03125 -0.484375 2.015625q-0.484375 0.984375 -1.328125 1.578125q-0.828125 0.59375 -2.046875 0.71875q-0.78125 0.09375 -3.71875 0.109375l-5.203125 0l0 -15.265625zm3.078125 2.546875l0 3.515625l2.03125 0q1.796875 0 2.234375 -0.046875q0.796875 -0.09375 1.25 -0.546875q0.453125 -0.453125 0.453125 -1.1875q0 -0.703125 -0.390625 -1.140625q-0.390625 -0.453125 -1.171875 -0.546875q-0.453125 -0.046875 -2.625 -0.046875l-1.78125 0zm0 6.0625l0 4.078125l2.859375 0q1.671875 0 2.109375 -0.09375q0.6875 -0.125 1.109375 -0.609375q0.4375 -0.484375 0.4375 -1.296875q0 -0.6875 -0.328125 -1.15625q-0.328125 -0.484375 -0.96875 -0.703125q-0.625 -0.21875 -2.71875 -0.21875l-2.5 0z" fill-rule="nonzero"/><path fill="#000000" fill-opacity="0.0" d="m534.41205 242.65355l713.6064 0l0 46.866135l-713.6064 0z" fill-rule="evenodd"/><path fill="#000000" d="m545.0214 273.41354l0 -16.21875l4.890625 0l2.953125 11.0625l2.90625 -11.0625l4.90625 0l0 16.21875l-3.046875 0l0 -12.765625l-3.21875 12.765625l-3.140625 0l-3.21875 -12.765625l0 12.765625l-3.03125 0zm23.169739 0l0 -6.828125l-5.9375 -9.390625l3.84375 0l3.8125 6.421875l3.734375 -6.421875l3.78125 0l-5.96875 9.421875l0 6.796875l-3.265625 0zm10.017761 -5.28125l3.1875 -0.3125q0.296875 1.609375 1.171875 2.359375q0.875 0.75 2.375 0.75q1.578125 0 2.375 -0.65625q0.8125 -0.671875 0.8125 -1.578125q0 -0.5625 -0.34375 -0.96875q-0.328125 -0.40625 -1.171875 -0.703125q-0.578125 -0.203125 -2.625 -0.71875q-2.640625 -0.640625 -3.703125 -1.59375q-1.484375 -1.34375 -1.484375 -3.265625q0 -1.234375 0.703125 -2.3125q0.703125 -1.078125 2.015625 -1.640625q1.328125 -0.578125 3.203125 -0.578125q3.046875 0 4.59375 1.34375q1.546875 1.34375 1.625 3.578125l-3.28125 0.140625q-0.203125 -1.25 -0.90625 -1.796875q-0.6875 -0.546875 -2.0625 -0.546875q-1.4375 0 -2.234375 0.578125q-0.53125 0.375 -0.53125 1.015625q0 0.578125 0.484375 0.984375q0.625 0.515625 3.015625 1.078125q2.390625 0.5625 3.53125 1.171875q1.15625 0.59375 1.796875 1.640625q0.640625 1.046875 0.640625 2.59375q0 1.390625 -0.78125 2.609375q-0.765625 1.21875 -2.1875 1.8125q-1.40625 0.578125 -3.515625 0.578125q-3.078125 0 -4.734375 -1.421875q-1.640625 -1.421875 -1.96875 -4.140625zm29.002197 3.21875q1.203125 0.875 2.625 1.375l-1.203125 2.3125q-0.75 -0.21875 -1.453125 -0.609375q-0.15625 -0.078125 -2.1875 -1.4375q-1.59375 0.703125 -3.53125 0.703125q-3.734375 0 -5.859375 -2.203125q-2.109375 -2.203125 -2.109375 -6.1875q0 -3.96875 2.125 -6.171875q2.125 -2.21875 5.765625 -2.21875q3.609375 0 5.71875 2.21875q2.109375 2.203125 2.109375 6.171875q0 2.109375 -0.578125 3.703125q-0.453125 1.203125 -1.421875 2.34375zm-2.640625 -1.84375q0.640625 -0.734375 0.953125 -1.78125q0.3125 -1.0625 0.3125 -2.421875q0 -2.8125 -1.234375 -4.203125q-1.234375 -1.390625 -3.25 -1.390625q-2.0 0 -3.25 1.40625q-1.234375 1.390625 -1.234375 4.1875q0 2.84375 1.234375 4.265625q1.25 1.40625 3.15625 1.40625q0.703125 0 1.34375 -0.234375q-1.0 -0.65625 -2.03125 -1.015625l0.921875 -1.875q1.609375 0.546875 3.078125 1.65625zm7.2946167 3.90625l0 -16.078125l3.28125 0l0 13.34375l8.140625 0l0 2.734375l-11.421875 0z" fill-rule="nonzero"/><path fill="#000000" fill-opacity="0.0" d="m224.96063 126.863625l853.76373 0l0 46.866142l-853.76373 0z" fill-rule="evenodd"/><path fill="#000000" d="m614.4809 157.62363l0 -16.21875l6.890625 0q2.609375 0 3.78125 0.4375q1.171875 0.4375 1.875 1.5625q0.71875 1.109375 0.71875 2.546875q0 1.828125 -1.078125 3.015625q-1.0625 1.1875 -3.203125 1.5q1.0625 0.625 1.75 1.359375q0.703125 0.734375 1.875 2.640625l1.96875 3.15625l-3.90625 0l-2.375 -3.53125q-1.265625 -1.890625 -1.734375 -2.375q-0.453125 -0.5 -0.984375 -0.671875q-0.515625 -0.1875 -1.640625 -0.1875l-0.65625 0l0 6.765625l-3.28125 0zm3.28125 -9.359375l2.421875 0q2.359375 0 2.9375 -0.1875q0.59375 -0.203125 0.921875 -0.6875q0.328125 -0.5 0.328125 -1.21875q0 -0.828125 -0.4375 -1.328125q-0.4375 -0.5 -1.234375 -0.640625q-0.390625 -0.046875 -2.390625 -0.046875l-2.546875 0l0 4.109375zm13.064758 9.359375l0 -16.21875l12.03125 0l0 2.75l-8.75 0l0 3.59375l8.140625 0l0 2.734375l-8.140625 0l0 4.40625l9.0625 0l0 2.734375l-12.34375 0zm29.736511 0l-3.546875 0l-1.421875 -3.6875l-6.484375 0l-1.34375 3.6875l-3.46875 0l6.3125 -16.21875l3.46875 0l6.484375 16.21875zm-6.015625 -6.421875l-2.234375 -6.015625l-2.203125 6.015625l4.4375 0zm18.142883 0.453125l3.171875 1.015625q-0.734375 2.65625 -2.4375 3.953125q-1.6875 1.28125 -4.296875 1.28125q-3.234375 0 -5.3125 -2.203125q-2.078125 -2.21875 -2.078125 -6.046875q0 -4.046875 2.078125 -6.28125q2.09375 -2.25 5.5 -2.25q2.984375 0 4.84375 1.765625q1.109375 1.03125 1.65625 2.984375l-3.234375 0.78125q-0.296875 -1.265625 -1.21875 -2.0q-0.90625 -0.734375 -2.203125 -0.734375q-1.8125 0 -2.9375 1.296875q-1.109375 1.296875 -1.109375 4.203125q0 3.0625 1.09375 4.375q1.109375 1.3125 2.890625 1.3125q1.296875 0 2.234375 -0.828125q0.9375 -0.84375 1.359375 -2.625zm9.627258 5.96875l0 -13.46875l-4.8125 0l0 -2.75l12.890625 0l0 2.75l-4.796875 0l0 13.46875l-3.28125 0z" fill-rule="nonzero"/><path fill="#000000" fill-opacity="0.0" d="m336.6404 242.97763l765.44885 0l0 45.259857l-765.44885 0z" fill-rule="evenodd"/><path fill="#000000" d="m666.95087 272.45764l0 -15.265625l4.609375 0l2.765625 10.40625l2.734375 -10.40625l4.625 0l0 15.265625l-2.859375 0l0 -12.015625l-3.03125 12.015625l-2.96875 0l-3.015625 -12.015625l0 12.015625l-2.859375 0zm19.969666 -7.6875l-2.65625 -0.484375q0.453125 -1.59375 1.546875 -2.359375q1.09375 -0.78125 3.25 -0.78125q1.953125 0 2.90625 0.46875q0.96875 0.453125 1.359375 1.171875q0.390625 0.71875 0.390625 2.625l-0.03125 3.40625q0 1.46875 0.125 2.15625q0.140625 0.6875 0.53125 1.484375l-2.890625 0q-0.109375 -0.296875 -0.28125 -0.859375q-0.078125 -0.265625 -0.109375 -0.34375q-0.75 0.71875 -1.609375 1.09375q-0.84375 0.359375 -1.8125 0.359375q-1.703125 0 -2.6875 -0.921875q-0.984375 -0.9375 -0.984375 -2.34375q0 -0.9375 0.4375 -1.671875q0.453125 -0.734375 1.25 -1.125q0.8125 -0.390625 2.34375 -0.6875q2.046875 -0.390625 2.84375 -0.71875l0 -0.296875q0 -0.84375 -0.421875 -1.203125q-0.421875 -0.359375 -1.578125 -0.359375q-0.78125 0 -1.21875 0.3125q-0.4375 0.3125 -0.703125 1.078125zm3.921875 2.375q-0.5625 0.1875 -1.78125 0.453125q-1.21875 0.25 -1.59375 0.5q-0.578125 0.40625 -0.578125 1.03125q0 0.625 0.453125 1.078125q0.46875 0.4375 1.171875 0.4375q0.796875 0 1.515625 -0.515625q0.53125 -0.40625 0.6875 -0.96875q0.125 -0.375 0.125 -1.4375l0 -0.578125zm10.830444 -5.75l0 2.328125l-2.0 0l0 4.46875q0 1.34375 0.046875 1.578125q0.0625 0.21875 0.265625 0.375q0.203125 0.140625 0.5 0.140625q0.40625 0 1.171875 -0.28125l0.25 2.265625q-1.015625 0.4375 -2.3125 0.4375q-0.796875 0 -1.4375 -0.265625q-0.625 -0.265625 -0.921875 -0.6875q-0.296875 -0.421875 -0.40625 -1.140625q-0.09375 -0.515625 -0.09375 -2.0625l0 -4.828125l-1.34375 0l0 -2.328125l1.34375 0l0 -2.1875l2.9375 -1.71875l0 3.90625l2.0 0zm8.430542 7.546875l2.90625 0.484375q-0.546875 1.609375 -1.765625 2.453125q-1.21875 0.828125 -3.03125 0.828125q-2.890625 0 -4.28125 -1.890625q-1.09375 -1.5 -1.09375 -3.8125q0 -2.75 1.4375 -4.296875q1.4375 -1.5625 3.640625 -1.5625q2.46875 0 3.890625 1.640625q1.421875 1.625 1.359375 4.984375l-7.328125 0q0.03125 1.296875 0.703125 2.03125q0.6875 0.71875 1.703125 0.71875q0.6875 0 1.15625 -0.375q0.46875 -0.375 0.703125 -1.203125zm0.171875 -2.96875q-0.03125 -1.265625 -0.65625 -1.921875q-0.625 -0.671875 -1.53125 -0.671875q-0.953125 0 -1.578125 0.703125q-0.625 0.703125 -0.609375 1.890625l4.375 0zm8.080444 6.484375l-2.921875 0l0 -11.0625l2.71875 0l0 1.578125q0.703125 -1.125 1.25 -1.46875q0.5625 -0.359375 1.265625 -0.359375q1.0 0 1.9375 0.5625l-0.90625 2.546875q-0.75 -0.484375 -1.375 -0.484375q-0.625 0 -1.046875 0.34375q-0.421875 0.328125 -0.671875 1.21875q-0.25 0.890625 -0.25 3.703125l0 3.421875zm5.503174 -12.5625l0 -2.703125l2.921875 0l0 2.703125l-2.921875 0zm0 12.5625l0 -11.0625l2.921875 0l0 11.0625l-2.921875 0zm8.113159 -7.6875l-2.65625 -0.484375q0.453125 -1.59375 1.546875 -2.359375q1.09375 -0.78125 3.25 -0.78125q1.953125 0 2.90625 0.46875q0.96875 0.453125 1.359375 1.171875q0.390625 0.71875 0.390625 2.625l-0.03125 3.40625q0 1.46875 0.125 2.15625q0.140625 0.6875 0.53125 1.484375l-2.890625 0q-0.109375 -0.296875 -0.28125 -0.859375q-0.078125 -0.265625 -0.109375 -0.34375q-0.75 0.71875 -1.609375 1.09375q-0.84375 0.359375 -1.8125 0.359375q-1.703125 0 -2.6875 -0.921875q-0.984375 -0.9375 -0.984375 -2.34375q0 -0.9375 0.4375 -1.671875q0.453125 -0.734375 1.25 -1.125q0.8125 -0.390625 2.34375 -0.6875q2.046875 -0.390625 2.84375 -0.71875l0 -0.296875q0 -0.84375 -0.421875 -1.203125q-0.421875 -0.359375 -1.578125 -0.359375q-0.78125 0 -1.21875 0.3125q-0.4375 0.3125 -0.703125 1.078125zm3.921875 2.375q-0.5625 0.1875 -1.78125 0.453125q-1.21875 0.25 -1.59375 0.5q-0.578125 0.40625 -0.578125 1.03125q0 0.625 0.453125 1.078125q0.46875 0.4375 1.171875 0.4375q0.796875 0 1.515625 -0.515625q0.53125 -0.40625 0.6875 -0.96875q0.125 -0.375 0.125 -1.4375l0 -0.578125zm5.7523193 5.3125l0 -15.265625l2.921875 0l0 15.265625l-2.921875 0zm11.851257 -15.265625l3.078125 0l0 8.265625q0 1.96875 0.125 2.546875q0.1875 0.9375 0.9375 1.515625q0.75 0.5625 2.03125 0.5625q1.3125 0 1.984375 -0.53125q0.671875 -0.546875 0.796875 -1.328125q0.140625 -0.78125 0.140625 -2.59375l0 -8.4375l3.078125 0l0 8.015625q0 2.75 -0.25 3.890625q-0.25 1.125 -0.921875 1.90625q-0.671875 0.78125 -1.796875 1.25q-1.125 0.46875 -2.9375 0.46875q-2.1875 0 -3.3125 -0.5q-1.125 -0.515625 -1.78125 -1.3125q-0.65625 -0.8125 -0.875 -1.703125q-0.296875 -1.3125 -0.296875 -3.875l0 -8.140625zm15.324402 15.265625l0 -15.265625l3.09375 0l0 15.265625l-3.09375 0z" fill-rule="nonzero"/><path fill="#000000" fill-opacity="0.0" d="m92.15874 357.69156l849.92126 0l0 46.86612l-849.92126 0z" fill-rule="evenodd"/><path fill="#000000" d="m465.28232 372.2328l6.484375 0q1.921875 0 2.859375 0.171875q0.953125 0.15625 1.703125 0.671875q0.75 0.5 1.25 1.34375q0.5 0.84375 0.5 1.890625q0 1.140625 -0.625 2.09375q-0.609375 0.953125 -1.65625 1.421875q1.484375 0.4375 2.28125 1.484375q0.796875 1.03125 0.796875 2.4375q0 1.109375 -0.515625 2.15625q-0.515625 1.046875 -1.40625 1.671875q-0.890625 0.625 -2.203125 0.765625q-0.8125 0.09375 -3.953125 0.109375l-5.515625 0l0 -16.21875zm3.28125 2.703125l0 3.75l2.140625 0q1.921875 0 2.375 -0.0625q0.84375 -0.09375 1.328125 -0.578125q0.484375 -0.484375 0.484375 -1.265625q0 -0.75 -0.421875 -1.21875q-0.40625 -0.46875 -1.234375 -0.578125q-0.484375 -0.046875 -2.796875 -0.046875l-1.875 0zm0 6.453125l0 4.328125l3.03125 0q1.765625 0 2.234375 -0.09375q0.734375 -0.140625 1.1875 -0.65625q0.46875 -0.515625 0.46875 -1.375q0 -0.734375 -0.359375 -1.234375q-0.34375 -0.515625 -1.015625 -0.734375q-0.671875 -0.234375 -2.90625 -0.234375l-2.640625 0zm12.330353 1.015625q0 -1.546875 0.765625 -2.984375q0.765625 -1.453125 2.15625 -2.21875q1.40625 -0.765625 3.125 -0.765625q2.671875 0 4.375 1.734375q1.703125 1.734375 1.703125 4.375q0 2.671875 -1.71875 4.421875q-1.71875 1.75 -4.328125 1.75q-1.625 0 -3.09375 -0.71875q-1.453125 -0.734375 -2.21875 -2.140625q-0.765625 -1.421875 -0.765625 -3.453125zm3.1875 0.171875q0 1.75 0.828125 2.6875q0.828125 0.921875 2.046875 0.921875q1.21875 0 2.03125 -0.921875q0.828125 -0.9375 0.828125 -2.703125q0 -1.734375 -0.828125 -2.65625q-0.8125 -0.9375 -2.03125 -0.9375q-1.21875 0 -2.046875 0.9375q-0.828125 0.921875 -0.828125 2.671875zm10.651855 -0.171875q0 -1.546875 0.765625 -2.984375q0.765625 -1.453125 2.15625 -2.21875q1.40625 -0.765625 3.125 -0.765625q2.671875 0 4.375 1.734375q1.703125 1.734375 1.703125 4.375q0 2.671875 -1.71875 4.421875q-1.71875 1.75 -4.328125 1.75q-1.625 0 -3.09375 -0.71875q-1.453125 -0.734375 -2.21875 -2.140625q-0.765625 -1.421875 -0.765625 -3.453125zm3.1875 0.171875q0 1.75 0.828125 2.6875q0.828125 0.921875 2.046875 0.921875q1.21875 0 2.03125 -0.921875q0.828125 -0.9375 0.828125 -2.703125q0 -1.734375 -0.828125 -2.65625q-0.8125 -0.9375 -2.03125 -0.9375q-1.21875 0 -2.046875 0.9375q-0.828125 0.921875 -0.828125 2.671875zm16.76123 -5.875l0 2.484375l-2.125 0l0 4.734375q0 1.4375 0.0625 1.671875q0.0625 0.234375 0.265625 0.390625q0.21875 0.15625 0.53125 0.15625q0.4375 0 1.25 -0.296875l0.265625 2.40625q-1.078125 0.46875 -2.453125 0.46875q-0.84375 0 -1.515625 -0.28125q-0.671875 -0.28125 -1.0 -0.71875q-0.3125 -0.453125 -0.421875 -1.21875q-0.109375 -0.546875 -0.109375 -2.203125l0 -5.109375l-1.421875 0l0 -2.484375l1.421875 0l0 -2.328125l3.125 -1.8125l0 4.140625l2.125 0zm1.0603027 8.390625l3.125 -0.46875q0.1875 0.90625 0.796875 1.375q0.609375 0.46875 1.703125 0.46875q1.21875 0 1.8125 -0.4375q0.421875 -0.3125 0.421875 -0.828125q0 -0.359375 -0.21875 -0.59375q-0.234375 -0.21875 -1.046875 -0.40625q-3.765625 -0.828125 -4.765625 -1.515625q-1.390625 -0.953125 -1.390625 -2.640625q0 -1.53125 1.203125 -2.5625q1.203125 -1.046875 3.734375 -1.046875q2.40625 0 3.578125 0.796875q1.1875 0.78125 1.625 2.3125l-2.9375 0.546875q-0.1875 -0.6875 -0.71875 -1.046875q-0.515625 -0.375 -1.484375 -0.375q-1.234375 0 -1.765625 0.34375q-0.359375 0.25 -0.359375 0.625q0 0.34375 0.3125 0.578125q0.421875 0.296875 2.90625 0.875q2.484375 0.5625 3.46875 1.375q0.96875 0.828125 0.96875 2.3125q0 1.609375 -1.34375 2.78125q-1.34375 1.15625 -4.0 1.15625q-2.390625 0 -3.796875 -0.96875q-1.390625 -0.984375 -1.828125 -2.65625zm19.084717 -8.390625l0 2.484375l-2.125 0l0 4.734375q0 1.4375 0.0625 1.671875q0.0625 0.234375 0.265625 0.390625q0.21875 0.15625 0.53125 0.15625q0.4375 0 1.25 -0.296875l0.265625 2.40625q-1.078125 0.46875 -2.453125 0.46875q-0.84375 0 -1.515625 -0.28125q-0.671875 -0.28125 -1.0 -0.71875q-0.3125 -0.453125 -0.421875 -1.21875q-0.109375 -0.546875 -0.109375 -2.203125l0 -5.109375l-1.421875 0l0 -2.484375l1.421875 0l0 -2.328125l3.125 -1.8125l0 4.140625l2.125 0zm5.1384277 11.75l-3.109375 0l0 -11.75l2.875 0l0 1.671875q0.75 -1.1875 1.34375 -1.5625q0.59375 -0.375 1.34375 -0.375q1.0625 0 2.046875 0.59375l-0.96875 2.703125q-0.78125 -0.5 -1.453125 -0.5q-0.65625 0 -1.109375 0.359375q-0.453125 0.359375 -0.71875 1.296875q-0.25 0.9375 -0.25 3.9375l0 3.625zm8.160706 -8.171875l-2.828125 -0.5q0.484375 -1.703125 1.640625 -2.515625q1.15625 -0.828125 3.453125 -0.828125q2.078125 0 3.09375 0.5q1.015625 0.484375 1.421875 1.25q0.421875 0.75 0.421875 2.78125l-0.03125 3.625q0 1.546875 0.140625 2.28125q0.15625 0.734375 0.578125 1.578125l-3.078125 0q-0.125 -0.3125 -0.296875 -0.921875q-0.078125 -0.265625 -0.109375 -0.359375q-0.796875 0.765625 -1.71875 1.15625q-0.90625 0.390625 -1.921875 0.390625q-1.828125 0 -2.875 -0.984375q-1.03125 -0.984375 -1.03125 -2.484375q0 -1.0 0.46875 -1.78125q0.484375 -0.78125 1.328125 -1.1875q0.859375 -0.421875 2.484375 -0.734375q2.171875 -0.40625 3.015625 -0.765625l0 -0.296875q0 -0.90625 -0.453125 -1.28125q-0.4375 -0.390625 -1.65625 -0.390625q-0.828125 0 -1.296875 0.328125q-0.46875 0.328125 -0.75 1.140625zm4.15625 2.53125q-0.59375 0.203125 -1.890625 0.484375q-1.296875 0.265625 -1.6875 0.53125q-0.609375 0.4375 -0.609375 1.09375q0 0.65625 0.484375 1.140625q0.484375 0.46875 1.234375 0.46875q0.84375 0 1.609375 -0.5625q0.5625 -0.40625 0.734375 -1.015625q0.125 -0.40625 0.125 -1.515625l0 -0.625zm6.022156 -6.109375l2.90625 0l0 1.734375q0.5625 -0.890625 1.515625 -1.4375q0.96875 -0.5625 2.140625 -0.5625q2.046875 0 3.46875 1.609375q1.4375 1.59375 1.4375 4.46875q0 2.9375 -1.4375 4.578125q-1.4375 1.625 -3.484375 1.625q-0.96875 0 -1.765625 -0.390625q-0.796875 -0.390625 -1.671875 -1.328125l0 5.921875l-3.109375 0l0 -16.21875zm3.078125 5.671875q0 1.984375 0.78125 2.9375q0.796875 0.9375 1.921875 0.9375q1.078125 0 1.796875 -0.859375q0.71875 -0.875 0.71875 -2.859375q0 -1.84375 -0.734375 -2.734375q-0.734375 -0.90625 -1.84375 -0.90625q-1.125 0 -1.890625 0.890625q-0.75 0.875 -0.75 2.59375z" fill-rule="nonzero"/><path fill="#000000" fill-opacity="0.0" d="m255.68504 359.4067l792.31494 0l0 48.472443l-792.31494 0z" fill-rule="evenodd"/><path fill="#000000" d="m610.3425 391.44672l0 -14.28125l-5.09375 0l0 -2.90625l13.65625 0l0 2.90625l-5.09375 0l0 14.28125l-3.46875 0zm11.457031 -8.65625l-2.984375 -0.53125q0.5 -1.8125 1.71875 -2.671875q1.234375 -0.875 3.671875 -0.875q2.203125 0 3.28125 0.53125q1.078125 0.515625 1.515625 1.328125q0.4375 0.796875 0.4375 2.9375l-0.03125 3.84375q0 1.640625 0.15625 2.421875q0.15625 0.78125 0.59375 1.671875l-3.265625 0q-0.125 -0.328125 -0.3125 -0.96875q-0.078125 -0.296875 -0.125 -0.390625q-0.84375 0.8125 -1.8125 1.234375q-0.953125 0.40625 -2.03125 0.40625q-1.921875 0 -3.03125 -1.046875q-1.109375 -1.046875 -1.109375 -2.640625q0 -1.046875 0.5 -1.875q0.5 -0.828125 1.40625 -1.265625q0.921875 -0.4375 2.625 -0.765625q2.3125 -0.4375 3.203125 -0.8125l0 -0.328125q0 -0.953125 -0.46875 -1.34375q-0.46875 -0.40625 -1.765625 -0.40625q-0.890625 0 -1.390625 0.34375q-0.484375 0.34375 -0.78125 1.203125zm4.40625 2.671875q-0.640625 0.21875 -2.015625 0.515625q-1.359375 0.28125 -1.78125 0.5625q-0.640625 0.46875 -0.640625 1.171875q0 0.6875 0.515625 1.1875q0.515625 0.5 1.3125 0.5q0.890625 0 1.6875 -0.578125q0.609375 -0.453125 0.796875 -1.09375q0.125 -0.421875 0.125 -1.609375l0 -0.65625zm6.4726562 -8.15625l0 -3.046875l3.296875 0l0 3.046875l-3.296875 0zm0 14.140625l0 -12.453125l3.296875 0l0 12.453125l-3.296875 0zm6.6679688 0l0 -17.1875l3.296875 0l0 17.1875l-3.296875 0zm8.996094 0l-3.9375 -12.453125l3.203125 0l2.328125 8.15625l2.140625 -8.15625l3.171875 0l2.078125 8.15625l2.375 -8.15625l3.25 0l-4.0 12.453125l-3.15625 0l-2.140625 -8.0l-2.109375 8.0l-3.203125 0zm16.339844 -14.140625l0 -3.046875l3.296875 0l0 3.046875l-3.296875 0zm0 14.140625l0 -12.453125l3.296875 0l0 12.453125l-3.296875 0zm17.996094 0l-3.296875 0l0 -6.359375q0 -2.015625 -0.21875 -2.59375q-0.203125 -0.59375 -0.6875 -0.921875q-0.46875 -0.328125 -1.125 -0.328125q-0.859375 0 -1.546875 0.46875q-0.671875 0.46875 -0.921875 1.25q-0.25 0.765625 -0.25 2.84375l0 5.640625l-3.296875 0l0 -12.453125l3.0625 0l0 1.828125q1.625 -2.109375 4.09375 -2.109375q1.09375 0 1.984375 0.40625q0.90625 0.390625 1.375 1.0q0.46875 0.609375 0.640625 1.390625q0.1875 0.765625 0.1875 2.203125l0 7.734375zm14.753906 0l-3.0625 0l0 -1.828125q-0.765625 1.0625 -1.796875 1.59375q-1.03125 0.515625 -2.09375 0.515625q-2.140625 0 -3.671875 -1.71875q-1.53125 -1.734375 -1.53125 -4.828125q0 -3.171875 1.484375 -4.8125q1.5 -1.65625 3.765625 -1.65625q2.09375 0 3.609375 1.734375l0 -6.1875l3.296875 0l0 17.1875zm-8.796875 -6.5q0 2.0 0.5625 2.890625q0.796875 1.28125 2.21875 1.28125q1.140625 0 1.9375 -0.953125q0.796875 -0.96875 0.796875 -2.890625q0 -2.15625 -0.78125 -3.09375q-0.765625 -0.9375 -1.96875 -0.9375q-1.171875 0 -1.96875 0.9375q-0.796875 0.921875 -0.796875 2.765625z" fill-rule="nonzero"/><path fill="#000000" fill-opacity="0.0" d="m345.62595 358.4947l884.4724 0l0 45.259857l-884.4724 0z" fill-rule="evenodd"/><path fill="#000000" d="m731.34503 387.9747l0 -15.265625l3.078125 0l0 6.0l6.046875 0l0 -6.0l3.078125 0l0 15.265625l-3.078125 0l0 -6.671875l-6.046875 0l0 6.671875l-3.078125 0zm17.558777 -7.6875l-2.65625 -0.484375q0.453125 -1.59375 1.546875 -2.359375q1.09375 -0.78125 3.25 -0.78125q1.953125 0 2.90625 0.46875q0.96875 0.453125 1.359375 1.171875q0.390625 0.71875 0.390625 2.625l-0.03125 3.40625q0 1.46875 0.125 2.15625q0.140625 0.6875 0.53125 1.484375l-2.890625 0q-0.109375 -0.296875 -0.28125 -0.859375q-0.078125 -0.265625 -0.109375 -0.34375q-0.75 0.71875 -1.609375 1.09375q-0.84375 0.359375 -1.8125 0.359375q-1.703125 0 -2.6875 -0.921875q-0.984375 -0.9375 -0.984375 -2.34375q0 -0.9375 0.4375 -1.671875q0.453125 -0.734375 1.25 -1.125q0.8125 -0.390625 2.34375 -0.6875q2.046875 -0.390625 2.84375 -0.71875l0 -0.296875q0 -0.84375 -0.421875 -1.203125q-0.421875 -0.359375 -1.578125 -0.359375q-0.78125 0 -1.21875 0.3125q-0.4375 0.3125 -0.703125 1.078125zm3.921875 2.375q-0.5625 0.1875 -1.78125 0.453125q-1.21875 0.25 -1.59375 0.5q-0.578125 0.40625 -0.578125 1.03125q0 0.625 0.453125 1.078125q0.46875 0.4375 1.171875 0.4375q0.796875 0 1.515625 -0.515625q0.53125 -0.40625 0.6875 -0.96875q0.125 -0.375 0.125 -1.4375l0 -0.578125zm15.814819 5.3125l-2.921875 0l0 -5.640625q0 -1.796875 -0.1875 -2.3125q-0.1875 -0.53125 -0.609375 -0.828125q-0.421875 -0.296875 -1.015625 -0.296875q-0.765625 0 -1.375 0.421875q-0.59375 0.421875 -0.828125 1.109375q-0.21875 0.6875 -0.21875 2.53125l0 5.015625l-2.921875 0l0 -11.0625l2.71875 0l0 1.625q1.4375 -1.875 3.640625 -1.875q0.96875 0 1.765625 0.359375q0.8125 0.34375 1.21875 0.890625q0.40625 0.53125 0.5625 1.21875q0.171875 0.6875 0.171875 1.96875l0 6.875zm13.106201 0l-2.71875 0l0 -1.625q-0.671875 0.953125 -1.59375 1.421875q-0.921875 0.453125 -1.859375 0.453125q-1.90625 0 -3.265625 -1.53125q-1.359375 -1.546875 -1.359375 -4.296875q0 -2.8125 1.3125 -4.265625q1.328125 -1.46875 3.359375 -1.46875q1.84375 0 3.203125 1.546875l0 -5.5l2.921875 0l0 15.265625zm-7.8125 -5.765625q0 1.765625 0.5 2.5625q0.703125 1.140625 1.96875 1.140625q1.015625 0 1.71875 -0.859375q0.71875 -0.859375 0.71875 -2.5625q0 -1.90625 -0.6875 -2.75q-0.6875 -0.84375 -1.765625 -0.84375q-1.046875 0 -1.75 0.828125q-0.703125 0.828125 -0.703125 2.484375zm10.699951 5.765625l0 -15.265625l2.921875 0l0 15.265625l-2.921875 0zm12.331848 -3.515625l2.90625 0.484375q-0.546875 1.609375 -1.765625 2.453125q-1.21875 0.828125 -3.03125 0.828125q-2.890625 0 -4.28125 -1.890625q-1.09375 -1.5 -1.09375 -3.8125q0 -2.75 1.4375 -4.296875q1.4375 -1.5625 3.640625 -1.5625q2.46875 0 3.890625 1.640625q1.421875 1.625 1.359375 4.984375l-7.328125 0q0.03125 1.296875 0.703125 2.03125q0.6875 0.71875 1.703125 0.71875q0.6875 0 1.15625 -0.375q0.46875 -0.375 0.703125 -1.203125zm0.171875 -2.96875q-0.03125 -1.265625 -0.65625 -1.921875q-0.625 -0.671875 -1.53125 -0.671875q-0.953125 0 -1.578125 0.703125q-0.625 0.703125 -0.609375 1.890625l4.375 0zm5.1585693 6.484375l0 -15.265625l2.921875 0l0 5.5q1.359375 -1.546875 3.21875 -1.546875q2.015625 0 3.328125 1.46875q1.328125 1.453125 1.328125 4.203125q0 2.828125 -1.34375 4.359375q-1.34375 1.53125 -3.28125 1.53125q-0.9375 0 -1.859375 -0.46875q-0.921875 -0.484375 -1.59375 -1.40625l0 1.625l-2.71875 0zm2.90625 -5.765625q0 1.71875 0.546875 2.53125q0.75 1.171875 2.015625 1.171875q0.96875 0 1.640625 -0.828125q0.6875 -0.828125 0.6875 -2.609375q0 -1.890625 -0.6875 -2.734375q-0.6875 -0.84375 -1.75 -0.84375q-1.0625 0 -1.765625 0.828125q-0.6875 0.8125 -0.6875 2.484375zm12.434326 -1.921875l-2.65625 -0.484375q0.453125 -1.59375 1.546875 -2.359375q1.09375 -0.78125 3.25 -0.78125q1.953125 0 2.90625 0.46875q0.96875 0.453125 1.359375 1.171875q0.390625 0.71875 0.390625 2.625l-0.03125 3.40625q0 1.46875 0.125 2.15625q0.140625 0.6875 0.53125 1.484375l-2.890625 0q-0.109375 -0.296875 -0.28125 -0.859375q-0.078125 -0.265625 -0.109375 -0.34375q-0.75 0.71875 -1.609375 1.09375q-0.84375 0.359375 -1.8125 0.359375q-1.703125 0 -2.6875 -0.921875q-0.984375 -0.9375 -0.984375 -2.34375q0 -0.9375 0.4375 -1.671875q0.453125 -0.734375 1.25 -1.125q0.8125 -0.390625 2.34375 -0.6875q2.046875 -0.390625 2.84375 -0.71875l0 -0.296875q0 -0.84375 -0.421875 -1.203125q-0.421875 -0.359375 -1.578125 -0.359375q-0.78125 0 -1.21875 0.3125q-0.4375 0.3125 -0.703125 1.078125zm3.921875 2.375q-0.5625 0.1875 -1.78125 0.453125q-1.21875 0.25 -1.59375 0.5q-0.578125 0.40625 -0.578125 1.03125q0 0.625 0.453125 1.078125q0.46875 0.4375 1.171875 0.4375q0.796875 0 1.515625 -0.515625q0.53125 -0.40625 0.6875 -0.96875q0.125 -0.375 0.125 -1.4375l0 -0.578125zm8.549194 5.3125l-2.921875 0l0 -11.0625l2.71875 0l0 1.578125q0.703125 -1.125 1.25 -1.46875q0.5625 -0.359375 1.265625 -0.359375q1.0 0 1.9375 0.5625l-0.90625 2.546875q-0.75 -0.484375 -1.375 -0.484375q-0.625 0 -1.046875 0.34375q-0.421875 0.328125 -0.671875 1.21875q-0.25 0.890625 -0.25 3.703125l0 3.421875zm4.471985 -3.15625l2.9375 -0.453125q0.1875 0.859375 0.75 1.3125q0.578125 0.4375 1.609375 0.4375q1.140625 0 1.71875 -0.421875q0.375 -0.296875 0.375 -0.78125q0 -0.328125 -0.203125 -0.546875q-0.21875 -0.21875 -0.984375 -0.390625q-3.53125 -0.78125 -4.484375 -1.421875q-1.3125 -0.90625 -1.3125 -2.5q0 -1.4375 1.125 -2.40625q1.140625 -0.984375 3.53125 -0.984375q2.265625 0 3.375 0.75q1.109375 0.734375 1.515625 2.171875l-2.75 0.515625q-0.1875 -0.640625 -0.6875 -0.984375q-0.484375 -0.34375 -1.40625 -0.34375q-1.15625 0 -1.65625 0.3125q-0.328125 0.234375 -0.328125 0.59375q0 0.3125 0.296875 0.53125q0.390625 0.296875 2.71875 0.828125q2.34375 0.53125 3.28125 1.296875q0.90625 0.78125 0.90625 2.1875q0 1.515625 -1.265625 2.609375q-1.265625 1.09375 -3.765625 1.09375q-2.25 0 -3.578125 -0.90625q-1.3125 -0.921875 -1.71875 -2.5z" fill-rule="nonzero"/><path fill="#000000" fill-opacity="0.0" d="m654.08923 467.8504l126.70868 0l0 64.62988l-126.70868 0z" fill-rule="evenodd"/><path fill="#000000" d="m679.40894 494.7704l0 -13.359375l5.6875 0q2.140625 0 3.109375 0.359375q0.96875 0.359375 1.546875 1.28125q0.578125 0.921875 0.578125 2.109375q0 1.5 -0.890625 2.484375q-0.875 0.96875 -2.625 1.234375q0.875 0.5 1.4375 1.125q0.578125 0.609375 1.53125 2.15625l1.640625 2.609375l-3.234375 0l-1.9375 -2.90625q-1.046875 -1.5625 -1.4375 -1.96875q-0.375 -0.40625 -0.8125 -0.546875q-0.421875 -0.15625 -1.34375 -0.15625l-0.546875 0l0 5.578125l-2.703125 0zm2.703125 -7.703125l2.0 0q1.9375 0 2.421875 -0.15625q0.484375 -0.171875 0.75 -0.578125q0.28125 -0.40625 0.28125 -1.0q0 -0.671875 -0.359375 -1.078125q-0.359375 -0.421875 -1.015625 -0.53125q-0.328125 -0.046875 -1.96875 -0.046875l-2.109375 0l0 3.390625zm16.347961 4.625l2.546875 0.421875q-0.484375 1.40625 -1.546875 2.140625q-1.0625 0.734375 -2.65625 0.734375q-2.515625 0 -3.734375 -1.65625q-0.953125 -1.3125 -0.953125 -3.328125q0 -2.40625 1.25 -3.765625q1.265625 -1.359375 3.1875 -1.359375q2.15625 0 3.40625 1.421875q1.25 1.421875 1.1875 4.375l-6.40625 0q0.03125 1.140625 0.609375 1.78125q0.59375 0.625 1.484375 0.625q0.59375 0 1.0 -0.328125q0.421875 -0.328125 0.625 -1.0625zm0.15625 -2.59375q-0.03125 -1.109375 -0.578125 -1.6875q-0.546875 -0.578125 -1.328125 -0.578125q-0.84375 0 -1.390625 0.609375q-0.546875 0.609375 -0.53125 1.65625l3.828125 0zm6.5319214 -1.046875l-2.328125 -0.421875q0.40625 -1.40625 1.359375 -2.078125q0.953125 -0.671875 2.84375 -0.671875q1.703125 0 2.546875 0.40625q0.84375 0.40625 1.171875 1.03125q0.34375 0.625 0.34375 2.28125l-0.015625 3.0q0 1.265625 0.109375 1.875q0.125 0.609375 0.46875 1.296875l-2.53125 0q-0.109375 -0.25 -0.25 -0.75q-0.0625 -0.234375 -0.09375 -0.3125q-0.65625 0.640625 -1.40625 0.96875q-0.734375 0.3125 -1.59375 0.3125q-1.484375 0 -2.34375 -0.8125q-0.859375 -0.8125 -0.859375 -2.046875q0 -0.828125 0.390625 -1.46875q0.390625 -0.640625 1.09375 -0.96875q0.703125 -0.34375 2.03125 -0.609375q1.796875 -0.328125 2.484375 -0.625l0 -0.25q0 -0.75 -0.359375 -1.0625q-0.359375 -0.3125 -1.375 -0.3125q-0.6875 0 -1.078125 0.28125q-0.375 0.265625 -0.609375 0.9375zm3.421875 2.078125q-0.484375 0.15625 -1.5625 0.390625q-1.0625 0.21875 -1.390625 0.4375q-0.5 0.359375 -0.5 0.90625q0 0.53125 0.40625 0.9375q0.40625 0.390625 1.015625 0.390625q0.703125 0 1.328125 -0.46875q0.46875 -0.34375 0.609375 -0.84375q0.09375 -0.328125 0.09375 -1.25l0 -0.5zm13.922607 4.640625l-2.390625 0l0 -1.421875q-0.59375 0.828125 -1.40625 1.234375q-0.796875 0.40625 -1.609375 0.40625q-1.671875 0 -2.859375 -1.34375q-1.1875 -1.34375 -1.1875 -3.75q0 -2.453125 1.15625 -3.734375q1.15625 -1.28125 2.921875 -1.28125q1.625 0 2.8125 1.34375l0 -4.8125l2.5625 0l0 13.359375zm-6.84375 -5.046875q0 1.546875 0.4375 2.234375q0.609375 1.015625 1.71875 1.015625q0.890625 0 1.5 -0.75q0.625 -0.765625 0.625 -2.25q0 -1.671875 -0.609375 -2.40625q-0.59375 -0.734375 -1.53125 -0.734375q-0.90625 0 -1.53125 0.734375q-0.609375 0.71875 -0.609375 2.15625zm8.145996 -4.625l2.71875 0l2.328125 6.859375l2.25 -6.859375l2.65625 0l-3.421875 9.3125l-0.609375 1.6875q-0.328125 0.84375 -0.640625 1.28125q-0.3125 0.453125 -0.703125 0.71875q-0.390625 0.28125 -0.96875 0.4375q-0.578125 0.15625 -1.3125 0.15625q-0.734375 0 -1.453125 -0.15625l-0.21875 -2.0q0.59375 0.125 1.078125 0.125q0.890625 0 1.3125 -0.53125q0.4375 -0.515625 0.671875 -1.328125l-3.6875 -9.703125zm21.215271 0l0 2.03125l-1.75 0l0 3.90625q0 1.1875 0.046875 1.390625q0.046875 0.1875 0.21875 0.3125q0.1875 0.125 0.4375 0.125q0.359375 0 1.03125 -0.25l0.21875 2.0q-0.890625 0.375 -2.015625 0.375q-0.703125 0 -1.265625 -0.234375q-0.546875 -0.234375 -0.8125 -0.59375q-0.25 -0.375 -0.34375 -1.0q-0.09375 -0.453125 -0.09375 -1.8125l0 -4.21875l-1.171875 0l0 -2.03125l1.171875 0l0 -1.921875l2.578125 -1.5l0 3.421875l1.75 0zm1.1813965 4.703125q0 -1.28125 0.625 -2.46875q0.625 -1.203125 1.78125 -1.828125q1.15625 -0.625 2.578125 -0.625q2.1875 0 3.59375 1.421875q1.40625 1.421875 1.40625 3.609375q0 2.1875 -1.421875 3.640625q-1.421875 1.4375 -3.5625 1.4375q-1.328125 0 -2.546875 -0.59375q-1.203125 -0.609375 -1.828125 -1.765625q-0.625 -1.171875 -0.625 -2.828125zm2.625 0.125q0 1.453125 0.671875 2.21875q0.6875 0.75 1.6875 0.75q1.0 0 1.671875 -0.75q0.6875 -0.765625 0.6875 -2.234375q0 -1.421875 -0.6875 -2.1875q-0.671875 -0.765625 -1.671875 -0.765625q-1.0 0 -1.6875 0.765625q-0.671875 0.765625 -0.671875 2.203125z" fill-rule="nonzero"/><path fill="#000000" d="m671.08997 517.1704l0 -13.3594055l2.5625 0l0 13.3594055l-2.5625 0zm10.7771 -3.078125l2.546875 0.421875q-0.484375 1.40625 -1.546875 2.140625q-1.0625 0.734375 -2.65625 0.734375q-2.515625 0 -3.734375 -1.65625q-0.953125 -1.3125 -0.953125 -3.328125q0 -2.4062805 1.25 -3.7656555q1.265625 -1.359375 3.1875 -1.359375q2.15625 0 3.40625 1.421875q1.25 1.421875 1.1875 4.3750305l-6.40625 0q0.03125 1.140625 0.609375 1.78125q0.59375 0.625 1.484375 0.625q0.59375 0 1.0 -0.328125q0.421875 -0.328125 0.625 -1.0625zm0.15625 -2.5937805q-0.03125 -1.109375 -0.578125 -1.6875q-0.546875 -0.578125 -1.328125 -0.578125q-0.84375 0 -1.390625 0.609375q-0.546875 0.609375 -0.53125 1.65625l3.828125 0zm6.5319214 -1.046875l-2.328125 -0.421875q0.40625 -1.40625 1.359375 -2.078125q0.953125 -0.671875 2.84375 -0.671875q1.703125 0 2.546875 0.40625q0.84375 0.40625 1.171875 1.03125q0.34375 0.625 0.34375 2.28125l-0.015625 3.0000305q0 1.265625 0.109375 1.875q0.125 0.609375 0.46875 1.296875l-2.53125 0q-0.109375 -0.25 -0.25 -0.75q-0.0625 -0.234375 -0.09375 -0.3125q-0.65625 0.640625 -1.40625 0.96875q-0.734375 0.3125 -1.59375 0.3125q-1.484375 0 -2.34375 -0.8125q-0.859375 -0.8125 -0.859375 -2.046875q0 -0.828125 0.390625 -1.46875q0.390625 -0.640625 1.09375 -0.96875q0.703125 -0.34378052 2.03125 -0.6094055q1.796875 -0.328125 2.484375 -0.625l0 -0.25q0 -0.75 -0.359375 -1.0625q-0.359375 -0.3125 -1.375 -0.3125q-0.6875 0 -1.078125 0.28125q-0.375 0.265625 -0.609375 0.9375zm3.421875 2.0781555q-0.484375 0.15625 -1.5625 0.390625q-1.0625 0.21875 -1.390625 0.4375q-0.5 0.359375 -0.5 0.90625q0 0.53125 0.40625 0.9375q0.40625 0.390625 1.015625 0.390625q0.703125 0 1.328125 -0.46875q0.46875 -0.34375 0.609375 -0.84375q0.09375 -0.328125 0.09375 -1.25l0 -0.5zm7.5007324 4.640625l-2.5625 0l0 -9.6719055l2.375 0l0 1.375q0.609375 -0.984375 1.09375 -1.28125q0.484375 -0.3125 1.109375 -0.3125q0.875 0 1.6875 0.484375l-0.796875 2.234375q-0.640625 -0.421875 -1.203125 -0.421875q-0.53125 0 -0.90625 0.296875q-0.375 0.296875 -0.59375 1.078125q-0.203125 0.765625 -0.203125 3.2344055l0 2.984375zm13.604004 0l-2.5625 0l0 -4.9375q0 -1.5625305 -0.171875 -2.0156555q-0.15625 -0.46875 -0.53125 -0.71875q-0.359375 -0.265625 -0.875 -0.265625q-0.671875 0 -1.203125 0.375q-0.53125 0.359375 -0.734375 0.96875q-0.1875 0.59375 -0.1875 2.2187805l0 4.375l-2.546875 0l0 -9.6719055l2.375 0l0 1.421875q1.265625 -1.640625 3.1875 -1.640625q0.84375 0 1.546875 0.3125q0.703125 0.296875 1.0625 0.78125q0.359375 0.46875 0.5 1.078125q0.140625 0.59375 0.140625 1.703125l0 6.0156555zm7.5792847 -9.6719055l2.359375 0l0 1.3125q1.265625 -1.53125 3.015625 -1.53125q0.9375 0 1.609375 0.390625q0.6875 0.375 1.125 1.140625q0.640625 -0.765625 1.375 -1.140625q0.75 -0.390625 1.578125 -0.390625q1.0625 0 1.796875 0.4375q0.75 0.421875 1.109375 1.265625q0.265625 0.625 0.265625 2.0l0 6.1875305l-2.5625 0l0 -5.5312805q0 -1.4375 -0.265625 -1.859375q-0.34375 -0.546875 -1.09375 -0.546875q-0.53125 0 -1.015625 0.328125q-0.46875 0.328125 -0.671875 0.96875q-0.203125 0.625 -0.203125 2.0000305l0 4.640625l-2.5625 0l0 -5.2969055q0 -1.421875 -0.140625 -1.828125q-0.140625 -0.40625 -0.421875 -0.609375q-0.28125 -0.203125 -0.78125 -0.203125q-0.59375 0 -1.0625 0.328125q-0.46875 0.3125 -0.6875 0.921875q-0.203125 0.59375 -0.203125 1.9844055l0 4.703125l-2.5625 0l0 -9.6719055zm16.197815 4.7031555q0 -1.2812805 0.625 -2.4687805q0.625 -1.203125 1.78125 -1.828125q1.15625 -0.625 2.578125 -0.625q2.1875 0 3.59375 1.421875q1.40625 1.421875 1.40625 3.6094055q0 2.1875 -1.421875 3.640625q-1.421875 1.4375 -3.5625 1.4375q-1.328125 0 -2.546875 -0.59375q-1.203125 -0.609375 -1.828125 -1.765625q-0.625 -1.171875 -0.625 -2.828125zm2.625 0.125q0 1.453125 0.671875 2.21875q0.6875 0.75 1.6875 0.75q1.0 0 1.671875 -0.75q0.6875 -0.765625 0.6875 -2.234375q0 -1.4219055 -0.6875 -2.1875305q-0.671875 -0.765625 -1.671875 -0.765625q-1.0 0 -1.6875 0.765625q-0.671875 0.765625 -0.671875 2.2031555zm11.81781 4.84375l-2.5625 0l0 -9.6719055l2.375 0l0 1.375q0.609375 -0.984375 1.09375 -1.28125q0.484375 -0.3125 1.109375 -0.3125q0.875 0 1.6875 0.484375l-0.796875 2.234375q-0.640625 -0.421875 -1.203125 -0.421875q-0.53125 0 -0.90625 0.296875q-0.375 0.296875 -0.59375 1.078125q-0.203125 0.765625 -0.203125 3.2344055l0 2.984375zm10.40094 -3.078125l2.546875 0.421875q-0.484375 1.40625 -1.546875 2.140625q-1.0625 0.734375 -2.65625 0.734375q-2.515625 0 -3.734375 -1.65625q-0.953125 -1.3125 -0.953125 -3.328125q0 -2.4062805 1.25 -3.7656555q1.265625 -1.359375 3.1875 -1.359375q2.15625 0 3.40625 1.421875q1.25 1.421875 1.1875 4.3750305l-6.40625 0q0.03125 1.140625 0.609375 1.78125q0.59375 0.625 1.484375 0.625q0.59375 0 1.0 -0.328125q0.421875 -0.328125 0.625 -1.0625zm0.15625 -2.5937805q-0.03125 -1.109375 -0.578125 -1.6875q-0.546875 -0.578125 -1.328125 -0.578125q-0.84375 0 -1.390625 0.609375q-0.546875 0.609375 -0.53125 1.65625l3.828125 0z" fill-rule="nonzero"/></g></svg>